<svg width="42" height="42" viewBox="0 0 42 42" fill="none" xmlns="http://www.w3.org/2000/svg">
<path d="M24.9382 19.425V14.7C24.9382 13.6557 24.5233 12.6542 23.7849 11.9158C23.0465 11.1773 22.045 10.7625 21.0007 10.7625C19.9564 10.7625 18.9549 11.1773 18.2164 11.9158C17.478 12.6542 17.0632 13.6557 17.0632 14.7V19.425M28.987 17.3324L30.3131 29.9323C30.3866 30.6306 29.8406 31.2375 29.1382 31.2375H12.8632C12.6975 31.2377 12.5336 31.203 12.3822 31.1357C12.2308 31.0684 12.0953 30.9701 11.9844 30.847C11.8734 30.7239 11.7897 30.5788 11.7385 30.4213C11.6873 30.2637 11.6698 30.0971 11.6872 29.9323L13.0144 17.3324C13.045 17.0421 13.182 16.7734 13.3989 16.5782C13.6159 16.383 13.8975 16.2749 14.1893 16.275H27.812C28.4168 16.275 28.924 16.7318 28.987 17.3324ZM17.4569 19.425C17.4569 19.5294 17.4154 19.6296 17.3416 19.7034C17.2678 19.7773 17.1676 19.8188 17.0632 19.8188C16.9588 19.8188 16.8586 19.7773 16.7848 19.7034C16.7109 19.6296 16.6694 19.5294 16.6694 19.425C16.6694 19.3206 16.7109 19.2204 16.7848 19.1466C16.8586 19.0727 16.9588 19.0313 17.0632 19.0313C17.1676 19.0313 17.2678 19.0727 17.3416 19.1466C17.4154 19.2204 17.4569 19.3206 17.4569 19.425ZM25.3319 19.425C25.3319 19.5294 25.2904 19.6296 25.2166 19.7034C25.1428 19.7773 25.0426 19.8188 24.9382 19.8188C24.8338 19.8188 24.7336 19.7773 24.6598 19.7034C24.5859 19.6296 24.5444 19.5294 24.5444 19.425C24.5444 19.3206 24.5859 19.2204 24.6598 19.1466C24.7336 19.0727 24.8338 19.0313 24.9382 19.0313C25.0426 19.0313 25.1428 19.0727 25.2166 19.1466C25.2904 19.2204 25.3319 19.3206 25.3319 19.425Z" stroke="#151515" stroke-width="1.575" stroke-linecap="round" stroke-linejoin="round"/>
</svg>
