<svg width="42" height="42" viewBox="0 0 42 42" fill="none" xmlns="http://www.w3.org/2000/svg">
<path d="M24.9379 19.425V14.7C24.9379 13.6557 24.5231 12.6542 23.7847 11.9158C23.0462 11.1773 22.0447 10.7625 21.0004 10.7625C19.9561 10.7625 18.9546 11.1773 18.2162 11.9158C17.4778 12.6542 17.0629 13.6557 17.0629 14.7V19.425M28.9867 17.3324L30.3129 29.9323C30.3864 30.6306 29.8404 31.2375 29.1379 31.2375H12.8629C12.6973 31.2377 12.5334 31.203 12.382 31.1357C12.2306 31.0684 12.095 30.9701 11.9841 30.847C11.8732 30.7239 11.7894 30.5788 11.7382 30.4213C11.687 30.2637 11.6696 30.0971 11.6869 29.9323L13.0141 17.3324C13.0448 17.0421 13.1817 16.7734 13.3987 16.5782C13.6157 16.383 13.8972 16.2749 14.1891 16.275H27.8118C28.4166 16.275 28.9237 16.7318 28.9867 17.3324ZM17.4567 19.425C17.4567 19.5294 17.4152 19.6296 17.3414 19.7034C17.2675 19.7773 17.1674 19.8188 17.0629 19.8188C16.9585 19.8188 16.8584 19.7773 16.7845 19.7034C16.7107 19.6296 16.6692 19.5294 16.6692 19.425C16.6692 19.3206 16.7107 19.2204 16.7845 19.1466C16.8584 19.0727 16.9585 19.0313 17.0629 19.0313C17.1674 19.0313 17.2675 19.0727 17.3414 19.1466C17.4152 19.2204 17.4567 19.3206 17.4567 19.425ZM25.3317 19.425C25.3317 19.5294 25.2902 19.6296 25.2164 19.7034C25.1425 19.7773 25.0424 19.8188 24.9379 19.8188C24.8335 19.8188 24.7334 19.7773 24.6595 19.7034C24.5857 19.6296 24.5442 19.5294 24.5442 19.425C24.5442 19.3206 24.5857 19.2204 24.6595 19.1466C24.7334 19.0727 24.8335 19.0313 24.9379 19.0313C25.0424 19.0313 25.1425 19.0727 25.2164 19.1466C25.2902 19.2204 25.3317 19.3206 25.3317 19.425Z" stroke="#151515" stroke-width="1.575" stroke-linecap="round" stroke-linejoin="round"/>
<rect x="22" width="20" height="20" rx="10" fill="#1F74B7"/>
<path d="M33.0879 15H31.7051V9.48633C31.7051 9.30273 31.707 9.11914 31.7109 8.93555C31.7148 8.75195 31.7188 8.57227 31.7227 8.39648C31.7305 8.2207 31.7402 8.05273 31.752 7.89258C31.6699 7.98242 31.5684 8.08008 31.4473 8.18555C31.3301 8.29102 31.2051 8.40039 31.0723 8.51367L30.0879 9.29883L29.3965 8.42578L31.9395 6.43359H33.0879V15Z" fill="white"/>
</svg>
