<svg width="136" height="42" viewBox="0 0 136 42" fill="none" xmlns="http://www.w3.org/2000/svg">
<path d="M20.6412 19.371C20.2622 19.7523 19.972 20.2125 19.7912 20.7187C19.6104 21.225 19.5435 21.7649 19.5952 22.3L19.5772 22.282C19.6304 22.9119 19.5454 23.5457 19.3283 24.1394C19.1112 24.733 18.7672 25.2721 18.3203 25.7191C17.8733 26.166 17.3342 26.5101 16.7405 26.7272C16.1469 26.9443 15.513 27.0292 14.8832 26.976L14.9012 26.994C14.1478 26.9239 13.3911 27.0878 12.7342 27.4635C12.0774 27.8392 11.5524 28.4083 11.2309 29.0933C10.9094 29.7783 10.8069 30.5458 10.9375 31.2911C11.0682 32.0364 11.4255 32.7233 11.9608 33.2581C12.4961 33.7929 13.1833 34.1496 13.9287 34.2795C14.6742 34.4095 15.4415 34.3064 16.1262 33.9842C16.8109 33.6621 17.3795 33.1366 17.7546 32.4794C18.1297 31.8222 18.293 31.0654 18.2222 30.312L18.2412 30.33C18.188 29.7002 18.2729 29.0663 18.49 28.4727C18.7071 27.879 19.0512 27.3399 19.4981 26.8929C19.9451 26.446 20.4842 26.102 21.0778 25.8849C21.6715 25.6678 22.3053 25.5828 22.9352 25.636L22.9162 25.618C23.5316 25.6734 24.1511 25.5725 24.7172 25.3246C25.2832 25.0768 25.7776 24.6902 26.1544 24.2004C26.5312 23.7107 26.7784 23.1337 26.8728 22.5231C26.9673 21.9124 26.9061 21.2878 26.6949 20.7071C26.4837 20.1263 26.1293 19.6083 25.6646 19.201C25.1999 18.7937 24.6399 18.5104 24.0365 18.3771C23.4331 18.2439 22.8058 18.2651 22.2128 18.4389C21.6198 18.6126 21.0803 18.9332 20.6442 19.371H20.6412Z" fill="#1F74B7"/>
<path d="M13.2642 24.636L13.2452 24.618C13.7805 24.6719 14.3211 24.6062 14.828 24.4256C15.3348 24.245 15.7952 23.9541 16.1758 23.5738C16.5563 23.1935 16.8477 22.7333 17.0286 22.2266C17.2096 21.7199 17.2757 21.1794 17.2222 20.644L17.2412 20.662C17.188 20.0321 17.273 19.3983 17.49 18.8046C17.7071 18.211 18.0512 17.6719 18.4981 17.2249C18.9451 16.778 19.4842 16.4339 20.0778 16.2169C20.6715 15.9998 21.3053 15.9148 21.9352 15.968L21.9162 15.95C22.6697 16.0208 23.4266 15.8574 24.0838 15.4821C24.7411 15.1068 25.2665 14.538 25.5885 13.8531C25.9105 13.1682 26.0134 12.4007 25.8832 11.6552C25.753 10.9097 25.396 10.2225 24.8608 9.68737C24.3257 9.15224 23.6385 8.7952 22.893 8.66498C22.1475 8.53475 21.38 8.63766 20.6951 8.95968C20.0102 9.28169 19.4414 9.80714 19.0661 10.4643C18.6908 11.1216 18.5274 11.8785 18.5982 12.632L18.5802 12.613C18.6335 13.2429 18.5487 13.8768 18.3317 14.4706C18.1147 15.0643 17.7706 15.6035 17.3237 16.0505C16.8767 16.4974 16.3375 16.8415 15.7437 17.0585C15.15 17.2755 14.5161 17.3603 13.8862 17.307L13.9042 17.326C13.3689 17.2721 12.8282 17.3378 12.3214 17.5184C11.8146 17.6989 11.3542 17.9899 10.9736 18.3702C10.593 18.7505 10.3017 19.2107 10.1207 19.7174C9.93977 20.2241 9.87366 20.7646 9.9272 21.3L9.9092 21.282C9.96219 21.9118 9.87714 22.5456 9.65998 23.1392C9.44283 23.7327 9.09879 24.2718 8.65187 24.7187C8.20496 25.1656 7.66592 25.5096 7.07236 25.7268C6.4788 25.9439 5.84501 26.029 5.2152 25.976L5.2332 25.994C4.47971 25.9232 3.72275 26.0866 3.06554 26.4619C2.40834 26.8372 1.88289 27.406 1.56087 28.0909C1.23886 28.7758 1.13594 29.5433 1.26617 30.2888C1.3964 31.0343 1.75343 31.7215 2.28857 32.2566C2.82371 32.7918 3.51089 33.1488 4.2564 33.279C5.0019 33.4093 5.76944 33.3063 6.4543 32.9843C7.13917 32.6623 7.70803 32.1369 8.0833 31.4797C8.45856 30.8224 8.62196 30.0655 8.5512 29.312L8.5702 29.33C8.51703 28.7001 8.60195 28.0663 8.81905 27.4726C9.03614 26.879 9.38017 26.3399 9.82713 25.8929C10.2741 25.446 10.8132 25.1019 11.4068 24.8849C12.0005 24.6678 12.6343 24.5828 13.2642 24.636Z" fill="#1F74B7"/>
<path d="M6.56213 22.6289C6.94115 22.2477 7.23134 21.7875 7.41198 21.2812C7.59262 20.7749 7.65926 20.235 7.60713 19.6999L7.62613 19.7179C7.57292 19.0879 7.65789 18.4539 7.8751 17.8601C8.09231 17.2663 8.43652 16.727 8.88371 16.2801C9.33089 15.8331 9.87026 15.4891 10.4641 15.2721C11.058 15.0552 11.6921 14.9705 12.3221 15.0239L12.3031 15.0059C13.0564 15.0765 13.813 14.913 14.4699 14.5378C15.1268 14.1625 15.652 13.5938 15.9738 12.9092C16.2956 12.2245 16.3984 11.4573 16.2682 10.712C16.138 9.9668 15.7811 9.27988 15.2461 8.74494C14.7112 8.21 14.0243 7.85308 13.279 7.72286C12.5338 7.59263 11.7666 7.69544 11.0819 8.01727C10.3973 8.33909 9.82853 8.86426 9.45329 9.52116C9.07805 10.1781 8.91457 10.9347 8.98513 11.6879L8.96713 11.6699C9.0203 12.2998 8.93537 12.9337 8.71828 13.5273C8.50119 14.1209 8.15716 14.6601 7.7102 15.107C7.26324 15.554 6.72413 15.898 6.13049 16.1151C5.53685 16.3322 4.90298 16.4171 4.27313 16.3639L4.29113 16.3819C3.6757 16.3268 3.0563 16.4278 2.49032 16.6757C1.92434 16.9236 1.43009 17.3104 1.05338 17.8002C0.676671 18.29 0.429684 18.8669 0.335309 19.4776C0.240933 20.0882 0.302223 20.7128 0.513497 21.2935C0.724772 21.8741 1.0792 22.3921 1.54393 22.7993C2.00866 23.2065 2.56866 23.4898 3.17203 23.623C3.77541 23.7562 4.40264 23.7349 4.9956 23.5611C5.58856 23.3874 6.12807 23.0667 6.56413 22.6289H6.56213Z" fill="#1F74B7"/>
<path d="M37.5392 12.655H40.5092V27.108H37.5392V12.655Z" fill="#151515"/>
<path d="M42.1912 22.1591C42.187 21.1205 42.4912 20.104 43.0652 19.2383C43.6392 18.3727 44.4573 17.6969 45.4156 17.2966C46.374 16.8962 47.4297 16.7893 48.4489 16.9894C49.4681 17.1895 50.405 17.6875 51.1409 18.4205C51.8768 19.1535 52.3786 20.0883 52.5828 21.1067C52.7869 22.1251 52.6843 23.1812 52.2878 24.1412C51.8912 25.1012 51.2187 25.9219 50.3554 26.4994C49.4921 27.0768 48.4768 27.3851 47.4382 27.3851C46.7487 27.393 46.0646 27.2633 45.4258 27.0037C44.7871 26.7442 44.2065 26.3598 43.7179 25.8733C43.2294 25.3867 42.8428 24.8076 42.5806 24.1699C42.3185 23.5322 42.1861 22.8486 42.1912 22.1591ZM49.7152 22.1591C49.7028 21.7114 49.5587 21.2773 49.3009 20.911C49.0432 20.5448 48.6832 20.2626 48.2659 20.0999C47.8487 19.9371 47.3927 19.9009 46.955 19.9959C46.5174 20.0909 46.1174 20.3128 45.8051 20.6338C45.4928 20.9549 45.2821 21.3608 45.1993 21.801C45.1165 22.2411 45.1653 22.6959 45.3396 23.1085C45.5138 23.5211 45.8059 23.8731 46.1791 24.1206C46.5524 24.3681 46.9903 24.5001 47.4382 24.5001C47.7449 24.5083 48.05 24.4529 48.3342 24.3373C48.6184 24.2217 48.8756 24.0484 49.0896 23.8285C49.3035 23.6085 49.4695 23.3466 49.5772 23.0593C49.6849 22.772 49.7319 22.4655 49.7152 22.1591Z" fill="#151515"/>
<path d="M64.5222 17.2091V26.6091C64.5222 29.9351 61.9282 31.3411 59.2952 31.3411C58.3682 31.4104 57.4399 31.2232 56.6122 30.7998C55.7846 30.3765 55.0895 29.7334 54.6032 28.9411L57.1372 27.4761C57.3416 27.8891 57.6673 28.2298 58.0706 28.4527C58.474 28.6755 58.9358 28.7699 59.3942 28.7231C59.6872 28.7637 59.9856 28.7379 60.2673 28.6476C60.5489 28.5573 60.8067 28.4048 61.0215 28.2014C61.2363 27.9981 61.4026 27.749 61.5082 27.4727C61.6137 27.1964 61.6557 26.8998 61.6312 26.6051V25.7001C61.2834 26.1256 60.8408 26.4637 60.3387 26.6872C59.8366 26.9107 59.2891 27.0134 58.7402 26.9871C57.434 26.9459 56.1951 26.398 55.2857 25.4595C54.3763 24.521 53.8678 23.2654 53.8678 21.9586C53.8678 20.6517 54.3763 19.3962 55.2857 18.4576C56.1951 17.5191 57.434 16.9713 58.7402 16.9301C59.2891 16.9037 59.8366 17.0064 60.3387 17.2299C60.8408 17.4534 61.2834 17.7915 61.6312 18.2171V17.2071L64.5222 17.2091ZM61.6322 21.9601C61.6522 21.4814 61.5284 21.0078 61.2769 20.6C61.0254 20.1923 60.6576 19.8692 60.2209 19.6722C59.7842 19.4753 59.2986 19.4136 58.8265 19.495C58.3544 19.5764 57.9175 19.7972 57.5719 20.129C57.2264 20.4609 56.9881 20.8885 56.8876 21.3569C56.7872 21.8253 56.8292 22.3131 57.0084 22.7574C57.1875 23.2017 57.4955 23.5822 57.8927 23.8501C58.2899 24.1179 58.7582 24.2606 59.2372 24.2601C59.5493 24.2818 59.8624 24.238 60.1565 24.1314C60.4506 24.0248 60.7191 23.8578 60.9447 23.6411C61.1703 23.4245 61.3481 23.1629 61.4665 22.8734C61.5849 22.5839 61.6414 22.2727 61.6322 21.9601Z" fill="#151515"/>
<path d="M66.2041 22.1591C66.2 21.1205 66.5042 20.104 67.0782 19.2383C67.6522 18.3727 68.4702 17.6969 69.4286 17.2966C70.387 16.8962 71.4426 16.7893 72.4618 16.9894C73.481 17.1895 74.4179 17.6875 75.1538 18.4205C75.8897 19.1535 76.3915 20.0883 76.5957 21.1067C76.7999 22.1251 76.6972 23.1812 76.3007 24.1412C75.9042 25.1012 75.2317 25.9219 74.3684 26.4994C73.5051 27.0768 72.4898 27.3851 71.4511 27.3851C70.7617 27.393 70.0776 27.2633 69.4388 27.0037C68.8 26.7442 68.2194 26.3598 67.7309 25.8733C67.2423 25.3867 66.8557 24.8076 66.5936 24.1699C66.3314 23.5322 66.199 22.8486 66.2041 22.1591ZM73.7281 22.1591C73.7157 21.7114 73.5716 21.2773 73.3139 20.911C73.0561 20.5448 72.6961 20.2626 72.2789 20.0999C71.8616 19.9371 71.4057 19.9009 70.968 19.9959C70.5303 20.0909 70.1303 20.3128 69.818 20.6338C69.5058 20.9549 69.2951 21.3608 69.2123 21.801C69.1295 22.2411 69.1782 22.6959 69.3525 23.1085C69.5268 23.5211 69.8188 23.8731 70.1921 24.1206C70.5653 24.3681 71.0032 24.5001 71.4511 24.5001C71.7578 24.5083 72.0629 24.4529 72.3472 24.3373C72.6314 24.2217 72.8886 24.0484 73.1025 23.8285C73.3164 23.6085 73.4825 23.3466 73.5902 23.0593C73.6978 22.772 73.7448 22.4655 73.7281 22.1591Z" fill="#151515"/>
<path d="M78.0831 14.5559C78.0831 14.2035 78.1876 13.859 78.3835 13.5659C78.5793 13.2729 78.8576 13.0444 79.1832 12.9096C79.5088 12.7747 79.8671 12.7394 80.2128 12.8082C80.5585 12.8769 80.876 13.0466 81.1252 13.2959C81.3744 13.5451 81.5441 13.8626 81.6129 14.2083C81.6817 14.5539 81.6464 14.9123 81.5115 15.2379C81.3766 15.5635 81.1482 15.8418 80.8552 16.0376C80.5621 16.2334 80.2176 16.3379 79.8651 16.3379C79.394 16.3332 78.9434 16.144 78.6102 15.8108C78.2771 15.4776 78.0878 15.0271 78.0831 14.5559ZM78.3831 17.2089H81.3541V27.1089H78.3791L78.3831 17.2089Z" fill="#151515"/>
<path d="M94.1782 22.159C94.2125 22.8133 94.1172 23.4679 93.8976 24.0852C93.6781 24.7025 93.3387 25.2703 92.8989 25.756C92.4592 26.2417 91.9277 26.6356 91.3352 26.9152C90.7426 27.1948 90.1007 27.3544 89.4462 27.385C88.8958 27.4151 88.3457 27.3222 87.8356 27.1133C87.3255 26.9044 86.8684 26.5845 86.4972 26.177V31.068H83.5272V17.209H86.4972V18.139C86.8686 17.7318 87.3258 17.4123 87.8358 17.2035C88.3459 16.9947 88.8959 16.902 89.4462 16.932C90.1008 16.9625 90.7429 17.1221 91.3356 17.4017C91.9283 17.6813 92.4598 18.0753 92.8996 18.5611C93.3394 19.0469 93.6788 19.6149 93.8982 20.2324C94.1177 20.8499 94.2128 21.5046 94.1782 22.159ZM91.2082 22.159C91.1966 21.6957 91.0486 21.2461 90.7827 20.8665C90.5169 20.4868 90.1449 20.1941 89.7135 20.0248C89.282 19.8555 88.8102 19.8173 88.3571 19.9148C87.904 20.0123 87.4898 20.2414 87.1662 20.5732C86.8426 20.905 86.6241 21.3249 86.538 21.7803C86.4519 22.2357 86.502 22.7064 86.6821 23.1334C86.8621 23.5605 87.1642 23.9249 87.5504 24.1812C87.9366 24.4374 88.3897 24.5741 88.8532 24.574C89.1714 24.5882 89.489 24.5349 89.7852 24.4178C90.0813 24.3006 90.3494 24.1221 90.5717 23.8941C90.7941 23.6661 90.9657 23.3936 91.0754 23.0946C91.1851 22.7956 91.2304 22.4768 91.2082 22.159Z" fill="#151515"/>
<path d="M103.343 24.1381C103.343 26.4151 101.364 27.3851 99.2261 27.3851C98.3623 27.4633 97.4948 27.2807 96.7359 26.8606C95.977 26.4406 95.3616 25.8026 94.9691 25.0291L97.5421 23.5641C97.6462 23.9216 97.8698 24.2327 98.1755 24.4452C98.4813 24.6578 98.8507 24.7591 99.2221 24.7321C99.9341 24.7321 100.291 24.5141 100.291 24.1191C100.291 23.0291 95.4201 23.6041 95.4201 20.1791C95.4201 18.0201 97.2421 16.9321 99.3011 16.9321C100.075 16.9076 100.842 17.0912 101.52 17.4637C102.199 17.8363 102.766 18.3841 103.161 19.0501L100.627 20.4161C100.516 20.1568 100.331 19.9359 100.095 19.781C99.8594 19.6261 99.5832 19.5441 99.3011 19.5451C98.7861 19.5451 98.4691 19.7451 98.4691 20.0991C98.4731 21.2281 103.343 20.4751 103.343 24.1381Z" fill="#151515"/>
<path d="M114.192 17.209V27.109H111.222V26.178C110.88 26.5888 110.444 26.9125 109.952 27.1225C109.461 27.3325 108.926 27.4228 108.392 27.386C106.392 27.386 104.692 25.961 104.692 23.286V17.209H107.662V22.851C107.637 23.0868 107.664 23.3251 107.741 23.5495C107.817 23.7739 107.942 23.9788 108.106 24.1502C108.27 24.3215 108.469 24.455 108.69 24.5415C108.911 24.628 109.147 24.6654 109.384 24.651C110.473 24.651 111.225 24.018 111.225 22.612V17.212L114.192 17.209Z" fill="#151515"/>
<path d="M131.222 21.03V27.108H128.252V21.287C128.252 20.297 127.777 19.664 126.827 19.664C125.837 19.664 125.282 20.357 125.282 21.525V27.108H122.313V21.287C122.313 20.297 121.838 19.664 120.887 19.664C119.897 19.664 119.343 20.357 119.343 21.525V27.108H116.373V17.208H119.343V18.118C119.651 17.7143 120.055 17.3941 120.519 17.1868C120.982 16.9794 121.49 16.8915 121.996 16.931C122.504 16.9061 123.01 17.0134 123.465 17.2422C123.919 17.4711 124.307 17.8138 124.589 18.237C124.918 17.7943 125.354 17.4423 125.856 17.2139C126.358 16.9855 126.91 16.8882 127.46 16.931C129.733 16.932 131.222 18.555 131.222 21.03Z" fill="#151515"/>
<path d="M133.734 17.148C134.951 17.148 135.938 16.1612 135.938 14.944C135.938 13.7268 134.951 12.74 133.734 12.74C132.517 12.74 131.53 13.7268 131.53 14.944C131.53 16.1612 132.517 17.148 133.734 17.148Z" fill="#151515"/>
</svg>
